# xmcd
#
# Track frame offsets:
#	150
#	14722
#	28742
#	41245
#	53325
#	64067
#	75850
#	87587
#	100297
#	113667
#	125067
#	136400
#	145652
#	155667
#	167325
#	188345
#	200172
#	210737
#	223825
#	236997
#	250392
#	264325
#	279182
#
# Disc length: 4010
#
# Revision: 2
# Processed by: cddbd v1.5.1PL0 Copyright (c) Steve Scherf et al.
# Submitted via: inCDius 1.1b8
# Normalized: r0:DSETVAR1,TSWAP
#
DISCID=4d0fa817
DTITLE=Various Artist - All Time Legends Of Country Music
DYEAR=1900
DGENRE=
TTITLE0=Ken Maynard - The Lone Star Trail
TTITLE1=Patsy Montana and The Prairie Ramblers - I Want To Be A Cowboy's Sweetheart
TTITLE2=Hoosier Hot Shots - From The Indies To The Andies In His Undies
TTITLE3=Bob Wills and His Texas Playboys - Take Me Back To Tulsa
TTITLE4=Gene Autry - I'm Thinking Tonight Of My Blue Eyes
TTITLE5=Bill Monroe and His Blue Grass Boys - Rocky Road Blues
TTITLE6=Roy Acuff - Wabash Cannon Ball
TTITLE7=Johnny Bond and His Red River Valley Boys - Smoke! Smoke! Smoke! (That Cigarette)
TTITLE8=The Stanley Brothers - I'm A Man Of Constant Sorrow
TTITLE9=Little Jimmy Dickens - I Wish You Didn't Love Me So Much
TTITLE10=Carl Smith - Hey Joe!
TTITLE11=Flatt and Scruggs - Foggy Mountain Special
TTITLE12=Johnny Horton - Honky Tonk Man
TTITLE13=Ray Price - My Shoes Keep Walking Back To You
TTITLE14=Marty Robbins - El Paso
TTITLE15=Johnny Cash - Ring Of Fire
TTITLE16=The Statler Brothers - Flowers On The Wall
TTITLE17=Jim and Jesse - When I Stop Dreaming
TTITLE18=Lynn Anderson - I Never Promised You A Rose Garden
TTITLE19=Asleep At The Wheel - Choo Choo Ch' Boogie
TTITLE20=Willie Nelson - My Heroes Have Always Been Cowboys
TTITLE21=George Jones - He Stopped Loving Her Today
TTITLE22=Merle Haggard and Willie Nelson - Pancho and Lefty
EXTD=
EXTT0=
EXTT1=
EXTT2=
EXTT3=
EXTT4=
EXTT5=
EXTT6=
EXTT7=
EXTT8=
EXTT9=
EXTT10=
EXTT11=
EXTT12=
EXTT13=
EXTT14=
EXTT15=
EXTT16=
EXTT17=
EXTT18=
EXTT19=
EXTT20=
EXTT21=
EXTT22=
PLAYORDER=
